<svg xmlns="http://www.w3.org/2000/svg" width="20" height="20" viewBox="0 0 20 20" fill="none">
  <path d="M6.28308 5.22082C6.14091 5.08834 5.95286 5.01622 5.75856 5.01965C5.56426 5.02308 5.37887 5.10179 5.24146 5.2392C5.10405 5.37661 5.02534 5.562 5.02191 5.7563C5.01848 5.9506 5.0906 6.13865 5.22308 6.28082L8.94308 10.0008L5.22308 13.7208C5.1494 13.7895 5.09029 13.8723 5.0493 13.9643C5.00831 14.0563 4.98627 14.1556 4.98449 14.2563C4.98271 14.357 5.00124 14.457 5.03896 14.5504C5.07668 14.6438 5.13283 14.7286 5.20404 14.7999C5.27526 14.8711 5.3601 14.9272 5.45349 14.9649C5.54687 15.0027 5.6469 15.0212 5.74761 15.0194C5.84831 15.0176 5.94762 14.9956 6.03962 14.9546C6.13162 14.9136 6.21442 14.8545 6.28308 14.7808L10.0031 11.0608L13.7231 14.7808C13.7917 14.8545 13.8745 14.9136 13.9665 14.9546C14.0585 14.9956 14.1579 15.0176 14.2586 15.0194C14.3593 15.0212 14.4593 15.0027 14.5527 14.9649C14.6461 14.9272 14.7309 14.8711 14.8021 14.7999C14.8733 14.7286 14.9295 14.6438 14.9672 14.5504C15.0049 14.457 15.0235 14.357 15.0217 14.2563C15.0199 14.1556 14.9979 14.0563 14.9569 13.9643C14.9159 13.8723 14.8568 13.7895 14.7831 13.7208L11.0631 10.0008L14.7831 6.28082C14.9156 6.13865 14.9877 5.9506 14.9843 5.7563C14.9808 5.562 14.9021 5.37661 14.7647 5.2392C14.6273 5.10179 14.4419 5.02308 14.2476 5.01965C14.0533 5.01622 13.8653 5.08834 13.7231 5.22082L10.0031 8.94082L6.28308 5.22082Z" fill="#032528"/>
</svg>
