<svg width="136" height="19" viewBox="0 0 136 19" fill="none" xmlns="http://www.w3.org/2000/svg">
<g id="Paramount">
<path id="Vector" d="M132.078 18.2574C128.493 18.2574 126.816 16.813 126.816 13.6147V8.71401H125.062V4.74188H126.971L127.822 2.00781H131.666V4.74188H135.173V8.71401H131.666V12.8925C131.666 13.6921 131.949 13.8984 133.058 13.8984H135.173V17.9479C134.503 18.1027 133.29 18.2574 132.078 18.2574Z" fill="#0E4841"/>
<path id="Vector_2" d="M115.468 17.9999H110.645V4.74231H115.158V6.75416H115.39C116.113 5.25817 117.763 4.48438 119.724 4.48438C123.154 4.48438 124.444 6.77996 124.444 9.51402V17.9999H119.595V10.52C119.595 9.10133 119.259 8.63706 117.557 8.63706C115.958 8.63706 115.468 9.02395 115.468 10.4426V17.9999Z" fill="#0E4841"/>
<path id="Vector_3" d="M100.025 18.2577C96.5943 18.2577 95.3047 15.9622 95.3047 13.2281V4.74219H100.154V12.2222C100.154 13.6408 100.489 14.1051 102.191 14.1051C103.791 14.1051 104.281 13.7182 104.281 12.2996V4.74219H109.104V17.9998H104.59V15.988H104.358C103.636 17.484 101.985 18.2577 100.025 18.2577Z" fill="#0E4841"/>
<path id="Vector_4" d="M87.4008 18.2579C83.016 18.2579 80.4883 15.6528 80.4883 11.3711C80.4883 7.06368 83.016 4.48438 87.4008 4.48438C91.7856 4.48438 94.3134 7.06368 94.3134 11.3711C94.3134 15.6528 91.7856 18.2579 87.4008 18.2579ZM87.4008 14.0536C89.0258 14.0536 89.4901 13.4862 89.4901 11.3711C89.4901 9.25609 89.0258 8.68864 87.4008 8.68864C85.7759 8.68864 85.3116 9.25609 85.3116 11.3711C85.3116 13.4862 85.7759 14.0536 87.4008 14.0536Z" fill="#0E4841"/>
<path id="Vector_5" d="M61.9678 17.9999H57.1445V4.74231H61.6583V6.75416H61.8905C62.6127 5.28396 64.1345 4.48438 65.9658 4.48438C68.1324 4.48438 69.4478 5.38713 70.1184 6.75416H70.3506C71.2533 5.25817 72.7493 4.48438 74.6838 4.48438C78.1143 4.48438 79.4039 6.77996 79.4039 9.51402V17.9999H74.5548V10.52C74.5548 9.10133 74.2453 8.63706 72.672 8.63706C71.1502 8.63706 70.6859 9.02395 70.6859 10.4426V17.9999H65.8368V10.52C65.8368 9.10133 65.5273 8.63706 63.9539 8.63706C62.4321 8.63706 61.9678 9.02395 61.9678 10.4426V17.9999Z" fill="#0E4841"/>
<path id="Vector_6" d="M46.727 18.2579C44.4572 18.2579 42.7032 17.0456 42.7032 14.621C42.7032 12.5576 44.0445 11.3195 46.8559 10.8553L51.086 10.1846V9.72037C51.086 8.89499 50.8023 8.61126 49.3837 8.61126C47.965 8.61126 47.6297 8.8692 47.6297 9.66878V10.0815H43.0128V9.77195C43.0128 6.49623 45.5921 4.48438 49.5642 4.48438C53.6653 4.48438 55.7029 6.31568 55.7029 10.0557V17.9999H51.1634V16.4008H50.9312C50.3638 17.2261 49.2031 18.2579 46.727 18.2579ZM47.1397 14.1826C47.1397 14.6468 47.4234 14.75 48.3261 14.75C50.209 14.75 51.0086 14.2599 51.086 13.0219L47.8619 13.5635C47.346 13.6409 47.1397 13.8215 47.1397 14.1826Z" fill="#0E4841"/>
<path id="Vector_7" d="M35.3936 17.9999H30.5703V4.74231H35.0841V6.75416H35.3162C36.0642 5.46451 37.3281 4.48438 39.082 4.48438C41.6355 4.48438 42.5383 6.13513 42.5383 8.74023V11.139H37.6892V9.82354C37.6892 8.8434 37.5086 8.55968 36.6059 8.55968C35.8063 8.55968 35.3936 8.66285 35.3936 9.61719V17.9999Z" fill="#0E4841"/>
<path id="Vector_8" d="M20.1526 18.2579C17.8828 18.2579 16.1289 17.0456 16.1289 14.621C16.1289 12.5576 17.4701 11.3195 20.2816 10.8553L24.5117 10.1846V9.72037C24.5117 8.89499 24.2279 8.61126 22.8093 8.61126C21.3907 8.61126 21.0554 8.8692 21.0554 9.66878V10.0815H16.4384V9.77195C16.4384 6.49623 19.0177 4.48438 22.9899 4.48438C27.091 4.48438 29.1286 6.31568 29.1286 10.0557V17.9999H24.589V16.4008H24.3569C23.7894 17.2261 22.6288 18.2579 20.1526 18.2579ZM20.5653 14.1826C20.5653 14.6468 20.849 14.75 21.7518 14.75C23.6347 14.75 24.4343 14.2599 24.5117 13.0219L21.2875 13.5635C20.7717 13.6409 20.5653 13.8215 20.5653 14.1826Z" fill="#0E4841"/>
<path id="Vector_9" d="M5.75144 18.0001H0.902344V0.71875H9.07874C13.2056 0.71875 15.8623 3.1175 15.8623 7.08963C15.8623 11.1907 13.2056 13.4347 9.07874 13.4347H5.75144V18.0001ZM8.89819 5.07778H5.75144V9.10149H8.89819C10.5489 9.10149 11.0132 8.79198 11.0132 7.08963C11.0132 5.38729 10.5489 5.07778 8.89819 5.07778Z" fill="#0E4841"/>
</g>
</svg>
